# xmcd
#
# Track frame offsets:
#	150
#	21060
#	44835
#	67455
#	82460
#	98350
#	112160
#	131555
#	142300
#	166405
#	181780
#	201185
#	217740
#	241855
#	257570
#	275850
#	293955
# Disc length: 4255 seconds
# Revision: 2
# Processed by: cddbd v1.5.1PL2 Copyright (c) Steve Scherf et al.
#
# Submitted via: libkcddb 0.31
#
DISCID=11109d11
DTITLE=The Mississippi Mindsharks - Whatcha Hear Is Whatcha Get!
DYEAR=1999
DGENRE=Blues
TTITLE0=Hepcat Intrumental (Live)
TTITLE1=Walkin' Cane (Live)
TTITLE2=Two Doors Down (Live)
TTITLE3=Play With My Toy (Live)
TTITLE4=Made In The Shade (Live)
TTITLE5=Trouble Maker (Live)
TTITLE6=Seein' Double (Live)
TTITLE7=Baby Don't Hang On (Live)
TTITLE8=I Ought To Be Gone (Live)
TTITLE9=Gimme Some Of It (Live)
TTITLE10=Justa 'Nother Pretty Face (Live)
TTITLE11=Slicker Than Grease (Live)
TTITLE12=She's So Good To Me (Live)
TTITLE13=Give Her The Axe, Max! (Live)
TTITLE14=Right Now (Live)
TTITLE15=Tourmaline (Live)
TTITLE16=Too Many Drivers (Live)
EXTD=
EXTT0=
EXTT1=
EXTT2=
EXTT3=
EXTT4=
EXTT5=
EXTT6=
EXTT7=
EXTT8=
EXTT9=
EXTT10=
EXTT11=
EXTT12=
EXTT13=
EXTT14=
EXTT15=
EXTT16=
PLAYORDER=
